<?xml version="1.0" standalone="no"?>
<!DOCTYPE svg PUBLIC "-//W3C//DTD SVG 20010904//EN"
 "http://www.w3.org/TR/2001/REC-SVG-20010904/DTD/svg10.dtd">
<svg version="1.0" xmlns="http://www.w3.org/2000/svg"
 width="766.000000pt" height="766.000000pt" viewBox="0 0 766.000000 766.000000"
 preserveAspectRatio="xMidYMid meet">
<metadata>
Created by potrace 1.11, written by Peter Selinger 2001-2013
</metadata>
<g transform="translate(0.000000,766.000000) scale(0.100000,-0.100000)"
fill="#000000" stroke="none">
<path d="M712 7650 c-4 -3 -7 -275 -7 -605 l0 -600 -67 1 c-53 0 -69 -3 -72
-15 -2 -9 -4 -1250 -3 -2758 l0 -2741 61 0 c34 -1 71 -1 84 -1 l22 -1 0 -460
c0 -431 1 -460 18 -461 22 0 6094 0 6147 0 l40 1 0 460 0 460 30 1 c16 1 54 1
83 0 37 -2 52 2 53 11 1 19 1 5459 0 5483 -1 19 -7 21 -68 20 l-68 0 -5 605
-5 605 -3118 0 c-1716 0 -3122 -2 -3125 -5z"/>
</g>
</svg>
